<svg
  viewBox="0 0 24 18"
  xmlns="http://www.w3.org/2000/svg"
>
  <path
    fillRule="evenodd"
    clipRule="evenodd"
    d="M19.8705 17.1821H18.8574V12.1171H4.98709V17.1821H3.97404C2.49345 13.6755 1.16888 13.8314 1.16888 10.0912H3.35067V8.76648H4.2079V4.63657C3.117 5.80549 1.55857 7.05222 0 7.05222V5.4158C1.94812 5.4158 3.97408 2.45482 5.06502 0.818359C6.00009 2.14312 6.77928 3.31181 8.18188 4.24688C10.5975 5.88329 13.4026 5.88329 15.8181 4.24688C17.2207 3.31181 17.9999 2.14293 18.935 0.818359C20.0259 2.45477 21.974 5.4158 24 5.4158V7.05222C22.4416 7.05222 20.8831 5.80549 19.7921 4.63657V8.76648H20.6493V10.0912H22.8311C22.8311 13.8316 21.5064 13.7536 20.026 17.1821H19.8705ZM5.84445 4.48083V8.68873H6.70167V10.0135H17.1431V8.68873H18.0003V4.48083C17.6106 4.87053 17.1431 5.26002 16.6756 5.57173C13.7146 7.59769 10.1301 7.59769 7.1692 5.57173C6.70167 5.26004 6.31198 4.87033 5.84445 4.48083Z"
  />
</svg>
