<svg
  viewBox="0 0 25 30"
  xmlns="http://www.w3.org/2000/svg"
>
  <path
    fillRule="evenodd"
    clipRule="evenodd"
    d="M1.70418 13.3597C-2.48402 18.0623 2.36554 19.9728 2.36554 19.9728H5.52507V27.5412C5.52507 29.4515 8.35402 29.5984 8.53767 27.6147C8.57436 28.7537 10.6686 30.1865 11.7339 27.5781C11.7339 28.2761 12.0645 29.0109 12.7626 29.0109H18.7511C20.1104 28.1292 21.1023 27.2842 21.7637 26.4758C22.4985 25.5941 22.866 24.7124 22.9393 23.9041C23.4904 18.5034 12.322 14.0947 10.1176 9.46534L14.8203 4.7627C15.4447 1.89707 12.6527 2.37456 12.6527 2.37456L8.64814 6.37911L5.52529 9.53864L1.70418 13.3597ZM6.92104 13.6169C7.61908 13.6169 8.20693 14.2047 8.20693 14.9028C8.20693 15.6009 7.61914 16.1887 6.92104 16.1887C6.22294 16.1887 5.63515 15.6009 5.63515 14.9028C5.63515 14.2047 6.22294 13.6169 6.92104 13.6169Z"
    fill="white"
  />
  <path
    fillRule="evenodd"
    clipRule="evenodd"
    d="M5.45166 1.52948V9.39176L8.61121 6.23223V1.52959C8.53763 -0.564643 5.48834 -0.454341 5.45166 1.52959V1.52948Z"
    fill="white"
  />
  <path
    fillRule="evenodd"
    clipRule="evenodd"
    d="M23.0127 23.94C22.9392 24.7483 22.5719 25.63 21.8372 26.5117C22.6086 27.7976 24.6661 27.577 24.96 26.0342C25.1805 24.9688 24.4825 23.683 23.0127 23.9399V23.94Z"
    fill="white"
  />
</svg>
