<?xml version="1.0" standalone="no"?>
<!DOCTYPE svg PUBLIC "-//W3C//DTD SVG 20010904//EN"
 "http://www.w3.org/TR/2001/REC-SVG-20010904/DTD/svg10.dtd">
<svg version="1.0" xmlns="http://www.w3.org/2000/svg"
 width="960.000000pt" height="960.000000pt" viewBox="0 0 960.000000 960.000000"
 preserveAspectRatio="xMidYMid meet">
<metadata>
Created by potrace 1.14, written by Peter Selinger 2001-2017
</metadata>
<g transform="translate(0.000000,960.000000) scale(0.100000,-0.100000)"
fill="#000000" stroke="none">
<path d="M2915 9581 c-188 -54 -308 -172 -356 -351 -10 -34 -13 -358 -13
-1337 -1 -711 0 -1293 2 -1293 1 0 228 226 505 503 l502 502 0 785 c-1 855 0
843 -59 955 -34 66 -114 153 -161 175 -16 8 -32 18 -35 21 -3 3 -32 16 -65 28
-81 31 -235 36 -320 12z"/>
<path d="M4865 8843 c-11 -2 -465 -452 -1010 -999 -545 -548 -1334 -1341
-1755 -1763 -421 -422 -783 -789 -805 -815 -22 -26 -45 -53 -50 -59 -6 -7 -26
-32 -45 -57 -19 -25 -38 -46 -42 -48 -5 -2 -8 -10 -8 -18 0 -8 -7 -17 -15 -20
-8 -4 -15 -12 -15 -20 0 -8 -4 -14 -10 -14 -5 0 -10 -5 -10 -10 0 -12 -41 -73
-52 -78 -5 -2 -8 -10 -8 -18 0 -8 -5 -14 -12 -14 -6 0 -8 -3 -5 -7 4 -3 1 -13
-7 -22 -18 -21 -81 -144 -78 -154 1 -4 -3 -7 -8 -7 -6 0 -10 -4 -10 -9 0 -5
-7 -25 -15 -45 -8 -20 -15 -38 -15 -41 0 -3 -7 -19 -15 -35 -8 -16 -16 -33
-16 -37 -1 -5 -3 -12 -5 -18 -36 -110 -48 -193 -48 -335 -1 -231 41 -351 204
-584 44 -63 245 -242 310 -276 14 -7 27 -16 30 -20 3 -3 25 -17 50 -31 25 -13
47 -26 50 -29 3 -3 26 -15 53 -27 47 -23 50 -23 556 -23 l509 0 -1 -1235 c-1
-679 1 -1235 5 -1235 4 0 5 -7 2 -15 -8 -20 33 -153 57 -186 10 -15 19 -30 19
-35 0 -4 25 -31 57 -61 71 -68 165 -114 263 -129 38 -6 132 -6 160 0 14 3 40
9 58 12 18 3 35 10 38 15 3 5 13 9 23 9 10 0 24 7 31 15 7 8 16 13 20 10 5 -3
40 26 79 63 48 47 79 87 97 126 31 69 55 156 47 169 -3 6 -2 7 4 4 6 -4 13
-22 16 -42 6 -38 44 -121 64 -143 7 -7 13 -16 13 -20 1 -24 159 -162 186 -162
8 0 14 -4 14 -9 0 -5 32 -19 70 -31 209 -67 404 13 547 225 49 73 103 173 103
191 0 8 4 14 8 14 5 0 9 -17 10 -37 1 -70 25 -159 59 -228 24 -46 125 -157
141 -153 4 1 19 -4 34 -10 40 -17 118 -22 118 -8 0 7 3 7 8 1 5 -7 317 -10
947 -10 l940 1 115 80 c63 44 138 96 165 115 28 19 57 41 65 50 8 9 20 18 26
20 6 2 30 20 54 39 23 19 61 50 84 69 22 18 61 50 85 70 77 63 284 272 357
361 106 128 183 241 232 340 9 19 20 36 25 38 4 2 7 11 7 21 0 9 4 21 9 27 17
16 77 196 87 259 3 17 7 36 10 44 27 81 19 452 -11 501 -2 4 -7 22 -10 41 -3
19 -11 50 -17 69 -7 19 -12 37 -13 40 -1 15 -72 181 -92 217 -13 24 -24 45
-24 48 0 10 -37 72 -114 188 -44 66 -84 128 -90 136 -5 8 -14 20 -20 26 -5 6
-22 27 -37 46 -88 112 -101 127 -213 247 -169 182 -402 402 -601 567 -26 22
-55 48 -63 58 -9 9 -19 17 -23 17 -5 0 -16 8 -26 17 -38 37 -262 217 -457 368
-77 59 -141 112 -143 117 -2 4 -10 8 -17 8 -8 0 -18 6 -22 13 -4 7 -24 24 -43
37 -19 14 -42 30 -50 37 -8 7 -33 26 -55 43 -86 65 -99 75 -111 88 -7 6 -15
12 -18 12 -3 0 -14 7 -23 15 -10 8 -85 67 -168 130 -82 64 -160 125 -173 136
-12 10 -26 19 -31 19 -5 0 -11 4 -13 8 -1 4 -23 23 -48 42 -24 19 -49 40 -55
45 -7 6 -29 24 -50 40 -21 17 -48 39 -61 50 -13 11 -37 31 -55 45 -18 14 -37
30 -43 35 -6 6 -36 30 -66 55 -30 25 -66 55 -80 67 -14 12 -34 30 -46 40 -183
158 -353 320 -474 453 -41 45 -90 98 -107 117 -18 19 -33 39 -33 43 0 5 -6 13
-13 17 -7 4 -24 24 -37 43 -13 19 -27 37 -30 40 -20 15 -150 219 -188 293
l-24 49 747 747 c411 411 751 753 755 762 15 26 29 134 30 229 1 91 -5 135
-29 211 -66 209 -268 328 -555 326 -56 -1 -110 -3 -121 -4z m-1680 -3642 c62
-28 165 -115 165 -138 0 -7 3 -13 8 -13 11 0 43 -77 57 -135 16 -71 7 -225
-15 -225 -4 0 -11 -12 -15 -27 -13 -54 -109 -160 -167 -186 -16 -6 -28 -15
-28 -18 0 -3 -34 -14 -75 -24 -211 -49 -415 60 -487 263 -82 233 66 485 315
535 80 17 163 6 242 -32z"/>
<path d="M8180 1941 c-8 -3 -16 -10 -17 -16 -1 -5 -4 -30 -8 -55 -8 -51 -13
-75 -15 -75 -1 0 -3 -9 -4 -20 -2 -19 -21 -84 -33 -115 -4 -8 -7 -17 -8 -20
-26 -103 -145 -312 -276 -487 l-32 -42 34 -43 c50 -64 158 -155 194 -163 5 -1
24 -8 40 -14 63 -27 133 -39 215 -39 156 0 269 45 371 147 106 107 158 239
157 400 -1 121 -25 206 -92 325 -33 58 -165 172 -210 183 -6 1 -36 11 -66 21
-55 19 -217 28 -250 13z"/>
</g>
</svg>
